<mxfile host="app.diagrams.net" modified="2023-09-13T12:49:19.359Z" agent="Mozilla/5.0 (Macintosh; Intel Mac OS X 10_15_7) AppleWebKit/537.36 (KHTML, like Gecko) Chrome/116.0.0.0 Safari/537.36" version="21.7.5" etag="IZK2KWh4u77O8fS2GSNM" type="github">
  <diagram name="第 1 页" id="_Sos64FY_txlhdiCzOrl">
    <mxGraphModel>
      <root>
        <mxCell id="0" />
        <mxCell id="1" parent="0" />
      </root>
    </mxGraphModel>
  </diagram>
</mxfile>
